<?xml version="1.0" encoding="utf-8"?>
<!-- Generator: Adobe Illustrator 18.0.0, SVG Export Plug-In . SVG Version: 6.00 Build 0)  -->
<!DOCTYPE svg PUBLIC "-//W3C//DTD SVG 1.1//EN" "http://www.w3.org/Graphics/SVG/1.1/DTD/svg11.dtd">
<svg version="1.1" id="Ebene_1" xmlns="http://www.w3.org/2000/svg" xmlns:xlink="http://www.w3.org/1999/xlink" x="0px" y="0px"
	 viewBox="0 0 1980 600" enable-background="new 0 0 1980 600" xml:space="preserve">
<polygon stroke="#000000" stroke-miterlimit="10" points="728,314.7 634.5,329.6 704.2,196 704.2,196 "/>
<polygon stroke="#000000" stroke-miterlimit="10" points="797.9,336 704.4,318.2 774.1,202.5 774.1,202.5 "/>
<circle stroke="#000000" stroke-miterlimit="10" cx="717.8" cy="372.8" r="93.5"/>
<circle stroke="#000000" stroke-miterlimit="10" cx="971" cy="372.8" r="93.5"/>
<circle stroke="#000000" stroke-miterlimit="10" cx="1238.3" cy="372.8" r="93.5"/>
<text transform="matrix(1 0 0 1 818.7892 131.0179)" font-family="'MyriadPro-Regular'" font-size="95">Wanted</text>
<text transform="matrix(1 0 0 1 872.8677 566.8525)" font-family="'MyriadPro-Regular'" font-size="44">©PetFinder</text>
<path stroke="#000000" stroke-miterlimit="10" d="M893.3,357.5l-37.6,54.8c-5.7,0.8,4.7-19.6-0.8-27.5c-8.2-11.8-5.4-23.6-6.5-31.6
	l18-41.8c-1.8-13.4,27-36.1,41.3-38l48.3,8.7c14.3-1.9,25.8,5.4,27.6,18.9l-38.7,51.7C946.7,366,907.6,355.5,893.3,357.5z"/>
<path stroke="#000000" stroke-miterlimit="10" d="M1050.4,361.6l33.4,57.4c5.7,1.2-3.2-19.9,2.8-27.4c9-11.2,7.1-23.1,8.8-31
	l-14.8-43c2.8-13.3-24.2-38-38.4-41l-48.9,5.1c-14.2-3-26.1,3.5-28.9,16.8l34.8,54.4C996.4,366.2,1036.2,358.6,1050.4,361.6z"/>
<path d="M1311.3,194l27.9,14.8l13.5,17.1c12.4,2.3-17.6,20-25.2,17.7l-11.8,95.4c-1.6,8.5-25.5,14.1-37.8,11.8l-14.7-9
	c-12.4-2.3-10.4-42-8.8-50.6l10-54.3C1266,228.5,1295.8,200.1,1311.3,194z"/>
<path d="M1161.2,166.7l12.9-0.1c13.2-2.4,35.7,60.8,37.3,69.7l21,100.5c1.6,8.9-20.1,23.3-33.3,25.6l-18-3.4
	c-13.2,2.4-25.9-37.3-27.5-46.2l-10.2-56.8C1141.7,247,1148,169,1161.2,166.7z"/>
</svg>
