<?xml version="1.0" encoding="utf-8"?>
<!-- Generator: Adobe Illustrator 18.0.0, SVG Export Plug-In . SVG Version: 6.00 Build 0)  -->
<!DOCTYPE svg PUBLIC "-//W3C//DTD SVG 1.1//EN" "http://www.w3.org/Graphics/SVG/1.1/DTD/svg11.dtd">
<svg version="1.1" id="Ebene_1" xmlns="http://www.w3.org/2000/svg" xmlns:xlink="http://www.w3.org/1999/xlink" x="0px" y="0px"
	 viewBox="0 0 224 543" enable-background="new 0 0 224 543" xml:space="preserve">
<polygon points="182.5,258.5 102.3,535 22.1,258.5 "/>
<polygon fill="#FFFFFF" stroke="#FFFFFF" stroke-miterlimit="10" points="142.7,395.7 61.9,395.7 54.4,370 150.9,370 "/>
<polygon fill="#FFFFFF" stroke="#FFFFFF" stroke-miterlimit="10" points="125.9,453.7 78.7,453.7 71.3,428 133.4,428 "/>
<circle cx="102" cy="211" r="93.5"/>
<path d="M175,32.2L202.9,47l13.5,17.1c12.4,2.3-17.6,20-25.2,17.7l-11.8,95.4c-1.6,8.5-25.5,14.1-37.8,11.8l-14.7-9
	c-12.4-2.3-10.4-42-8.8-50.6l10-54.3C129.7,66.6,159.4,38.2,175,32.2z"/>
<path d="M24.8,4.8l12.9-0.1C50.9,2.4,73.4,65.5,75,74.4l21,100.5c1.6,8.9-20.1,23.3-33.3,25.6l-18-3.4
	c-13.2,2.4-25.9-37.3-27.5-46.2L7,94.1C5.4,85.2,11.6,7.2,24.8,4.8z"/>
</svg>
