<?xml version="1.0" encoding="utf-8"?>
<!-- Generator: Adobe Illustrator 18.0.0, SVG Export Plug-In . SVG Version: 6.00 Build 0)  -->
<!DOCTYPE svg PUBLIC "-//W3C//DTD SVG 1.1//EN" "http://www.w3.org/Graphics/SVG/1.1/DTD/svg11.dtd">
<svg version="1.1" id="Ebene_1" xmlns="http://www.w3.org/2000/svg" xmlns:xlink="http://www.w3.org/1999/xlink" x="0px" y="0px"
	 viewBox="0 0 261 432.4" enable-background="new 0 0 261 432.4" xml:space="preserve">
<polygon points="210.4,155.8 130.2,432.4 50,155.8 "/>
<polygon fill="#FFFFFF" stroke="#FFFFFF" stroke-miterlimit="10" points="170.6,293.1 89.8,293.1 82.3,267.4 178.8,267.4 "/>
<polygon fill="#FFFFFF" stroke="#FFFFFF" stroke-miterlimit="10" points="153.8,351.1 106.6,351.1 99.2,325.4 161.3,325.4 "/>
<circle cx="129.6" cy="107.6" r="93.5"/>
<path d="M51.9,92.2L14.3,147c-5.7,0.8,4.7-19.6-0.8-27.5c-8.2-11.8-5.4-23.6-6.5-31.6l18-41.8C23.2,32.6,52,9.9,66.4,8l48.3,8.7
	c14.3-1.9,25.8,5.4,27.6,18.9l-38.7,51.7C105.4,100.7,66.2,90.3,51.9,92.2z"/>
<path d="M209,96.3l33.4,57.4c5.7,1.2-3.2-19.9,2.8-27.4c9-11.2,7.1-23.1,8.8-31l-14.8-43c2.8-13.3-24.2-38-38.4-41l-48.9,5.1
	c-14.2-3-26.1,3.5-28.9,16.8l34.8,54.4C155,100.9,194.9,93.3,209,96.3z"/>
</svg>
